<mxfile host="Electron" modified="2024-01-24T16:09:40.435Z" agent="Mozilla/5.0 (X11; Linux x86_64) AppleWebKit/537.36 (KHTML, like Gecko) draw.io/22.1.18 Chrome/120.0.6099.199 Electron/28.1.2 Safari/537.36" etag="cdN-WCnWAFLbQWvLmYeL" version="22.1.18" type="device">
  <diagram name="Page-1" id="2ndY9DpuzZ7CDxutHXYX">
    <mxGraphModel dx="873" dy="1652" grid="1" gridSize="10" guides="1" tooltips="1" connect="1" arrows="1" fold="1" page="1" pageScale="1" pageWidth="827" pageHeight="1169" math="0" shadow="0">
      <root>
        <mxCell id="0" />
        <mxCell id="1" parent="0" />
        <mxCell id="oA0iBq8XB-oC9CqkHA7l-5" value="" style="rounded=0;whiteSpace=wrap;html=1;fillColor=#dae8fc;strokeColor=#6c8ebf;" vertex="1" parent="1">
          <mxGeometry x="45" y="-639.5" width="145" height="199.5" as="geometry" />
        </mxCell>
        <mxCell id="oA0iBq8XB-oC9CqkHA7l-12" style="edgeStyle=orthogonalEdgeStyle;rounded=0;orthogonalLoop=1;jettySize=auto;html=1;exitX=0.5;exitY=1;exitDx=0;exitDy=0;entryX=0.5;entryY=0;entryDx=0;entryDy=0;" edge="1" parent="1" source="oA0iBq8XB-oC9CqkHA7l-2" target="oA0iBq8XB-oC9CqkHA7l-3">
          <mxGeometry relative="1" as="geometry" />
        </mxCell>
        <mxCell id="oA0iBq8XB-oC9CqkHA7l-2" value="Sample collection" style="rounded=0;whiteSpace=wrap;html=1;" vertex="1" parent="1">
          <mxGeometry x="60" y="-614" width="110" height="30" as="geometry" />
        </mxCell>
        <mxCell id="oA0iBq8XB-oC9CqkHA7l-13" style="edgeStyle=orthogonalEdgeStyle;rounded=0;orthogonalLoop=1;jettySize=auto;html=1;exitX=0.5;exitY=1;exitDx=0;exitDy=0;entryX=0.5;entryY=0;entryDx=0;entryDy=0;" edge="1" parent="1" source="oA0iBq8XB-oC9CqkHA7l-3" target="oA0iBq8XB-oC9CqkHA7l-4">
          <mxGeometry relative="1" as="geometry" />
        </mxCell>
        <mxCell id="oA0iBq8XB-oC9CqkHA7l-3" value="DNA extraction, host deletion, RT and amplification" style="rounded=0;whiteSpace=wrap;html=1;" vertex="1" parent="1">
          <mxGeometry x="60" y="-564.75" width="110" height="50" as="geometry" />
        </mxCell>
        <mxCell id="oA0iBq8XB-oC9CqkHA7l-4" value="ONT Rapid Barcoding + Sequencing" style="rounded=0;whiteSpace=wrap;html=1;" vertex="1" parent="1">
          <mxGeometry x="60" y="-500" width="110" height="50" as="geometry" />
        </mxCell>
        <mxCell id="oA0iBq8XB-oC9CqkHA7l-6" value="&lt;b&gt;Clinic/Lab&lt;/b&gt;" style="text;html=1;strokeColor=none;fillColor=none;align=center;verticalAlign=middle;whiteSpace=wrap;rounded=0;" vertex="1" parent="1">
          <mxGeometry x="47" y="-638" width="60" height="20" as="geometry" />
        </mxCell>
        <mxCell id="oA0iBq8XB-oC9CqkHA7l-7" value="" style="rounded=0;whiteSpace=wrap;html=1;fillColor=#d5e8d4;strokeColor=#82b366;" vertex="1" parent="1">
          <mxGeometry x="220" y="-639.5" width="145" height="199.5" as="geometry" />
        </mxCell>
        <mxCell id="oA0iBq8XB-oC9CqkHA7l-34" style="edgeStyle=orthogonalEdgeStyle;rounded=0;orthogonalLoop=1;jettySize=auto;html=1;exitX=0.5;exitY=1;exitDx=0;exitDy=0;entryX=0.5;entryY=0;entryDx=0;entryDy=0;" edge="1" parent="1" source="oA0iBq8XB-oC9CqkHA7l-8" target="oA0iBq8XB-oC9CqkHA7l-9">
          <mxGeometry relative="1" as="geometry" />
        </mxCell>
        <mxCell id="oA0iBq8XB-oC9CqkHA7l-8" value="Launch MinKNOW" style="rounded=0;whiteSpace=wrap;html=1;" vertex="1" parent="1">
          <mxGeometry x="235" y="-614" width="110" height="30" as="geometry" />
        </mxCell>
        <mxCell id="oA0iBq8XB-oC9CqkHA7l-35" style="edgeStyle=orthogonalEdgeStyle;rounded=0;orthogonalLoop=1;jettySize=auto;html=1;exitX=0.5;exitY=1;exitDx=0;exitDy=0;entryX=0.5;entryY=0;entryDx=0;entryDy=0;" edge="1" parent="1" source="oA0iBq8XB-oC9CqkHA7l-9" target="oA0iBq8XB-oC9CqkHA7l-10">
          <mxGeometry relative="1" as="geometry" />
        </mxCell>
        <mxCell id="oA0iBq8XB-oC9CqkHA7l-9" value="Launch CIDR Pipeline" style="rounded=0;whiteSpace=wrap;html=1;" vertex="1" parent="1">
          <mxGeometry x="235" y="-564.75" width="110" height="40" as="geometry" />
        </mxCell>
        <mxCell id="oA0iBq8XB-oC9CqkHA7l-45" style="edgeStyle=orthogonalEdgeStyle;rounded=0;orthogonalLoop=1;jettySize=auto;html=1;entryX=0;entryY=0.5;entryDx=0;entryDy=0;" edge="1" parent="1" source="oA0iBq8XB-oC9CqkHA7l-10" target="oA0iBq8XB-oC9CqkHA7l-23">
          <mxGeometry relative="1" as="geometry" />
        </mxCell>
        <mxCell id="oA0iBq8XB-oC9CqkHA7l-10" value="Report generation" style="rounded=0;whiteSpace=wrap;html=1;" vertex="1" parent="1">
          <mxGeometry x="237.5" y="-500" width="110" height="24.75" as="geometry" />
        </mxCell>
        <mxCell id="oA0iBq8XB-oC9CqkHA7l-11" value="&lt;b&gt;Informatics&lt;/b&gt;" style="text;html=1;strokeColor=none;fillColor=none;align=center;verticalAlign=middle;whiteSpace=wrap;rounded=0;" vertex="1" parent="1">
          <mxGeometry x="226" y="-638" width="60" height="20" as="geometry" />
        </mxCell>
        <mxCell id="oA0iBq8XB-oC9CqkHA7l-14" style="edgeStyle=orthogonalEdgeStyle;rounded=0;orthogonalLoop=1;jettySize=auto;html=1;exitX=1;exitY=0.5;exitDx=0;exitDy=0;entryX=0;entryY=0.5;entryDx=0;entryDy=0;" edge="1" parent="1" source="oA0iBq8XB-oC9CqkHA7l-4" target="oA0iBq8XB-oC9CqkHA7l-8">
          <mxGeometry relative="1" as="geometry" />
        </mxCell>
        <mxCell id="oA0iBq8XB-oC9CqkHA7l-16" value="" style="rounded=0;whiteSpace=wrap;html=1;fillColor=#fff2cc;strokeColor=#d6b656;" vertex="1" parent="1">
          <mxGeometry x="390" y="-639.5" width="310" height="199.5" as="geometry" />
        </mxCell>
        <mxCell id="oA0iBq8XB-oC9CqkHA7l-20" value="&lt;b&gt;Analysis and QC&lt;/b&gt;" style="text;html=1;strokeColor=none;fillColor=none;align=center;verticalAlign=middle;whiteSpace=wrap;rounded=0;" vertex="1" parent="1">
          <mxGeometry x="396" y="-638" width="104" height="20" as="geometry" />
        </mxCell>
        <mxCell id="oA0iBq8XB-oC9CqkHA7l-46" value="No" style="edgeStyle=orthogonalEdgeStyle;rounded=0;orthogonalLoop=1;jettySize=auto;html=1;exitX=0;exitY=0.5;exitDx=0;exitDy=0;" edge="1" parent="1">
          <mxGeometry relative="1" as="geometry">
            <mxPoint x="391" y="-520.3333333333333" as="targetPoint" />
            <mxPoint x="438.5" y="-520" as="sourcePoint" />
          </mxGeometry>
        </mxCell>
        <mxCell id="oA0iBq8XB-oC9CqkHA7l-48" style="edgeStyle=orthogonalEdgeStyle;rounded=0;orthogonalLoop=1;jettySize=auto;html=1;entryX=0;entryY=0.5;entryDx=0;entryDy=0;" edge="1" parent="1" source="oA0iBq8XB-oC9CqkHA7l-21" target="oA0iBq8XB-oC9CqkHA7l-47">
          <mxGeometry relative="1" as="geometry" />
        </mxCell>
        <mxCell id="oA0iBq8XB-oC9CqkHA7l-21" value="Positive control" style="rhombus;whiteSpace=wrap;html=1;fontSize=11;" vertex="1" parent="1">
          <mxGeometry x="427.5" y="-550" width="72.5" height="60" as="geometry" />
        </mxCell>
        <mxCell id="oA0iBq8XB-oC9CqkHA7l-38" style="edgeStyle=orthogonalEdgeStyle;rounded=0;orthogonalLoop=1;jettySize=auto;html=1;exitX=0.25;exitY=1;exitDx=0;exitDy=0;entryX=0.5;entryY=0;entryDx=0;entryDy=0;" edge="1" parent="1" source="oA0iBq8XB-oC9CqkHA7l-23" target="oA0iBq8XB-oC9CqkHA7l-21">
          <mxGeometry relative="1" as="geometry" />
        </mxCell>
        <mxCell id="oA0iBq8XB-oC9CqkHA7l-23" value="0.5, 2, 16 and 24 hour reports" style="rounded=0;whiteSpace=wrap;html=1;" vertex="1" parent="1">
          <mxGeometry x="407.5" y="-610" width="110" height="40" as="geometry" />
        </mxCell>
        <mxCell id="oA0iBq8XB-oC9CqkHA7l-29" value="" style="group" vertex="1" connectable="0" parent="1">
          <mxGeometry x="120" y="-660" width="170" height="10" as="geometry" />
        </mxCell>
        <mxCell id="oA0iBq8XB-oC9CqkHA7l-24" value="" style="endArrow=none;html=1;rounded=0;" edge="1" parent="oA0iBq8XB-oC9CqkHA7l-29">
          <mxGeometry width="50" height="50" relative="1" as="geometry">
            <mxPoint as="sourcePoint" />
            <mxPoint x="170" as="targetPoint" />
          </mxGeometry>
        </mxCell>
        <mxCell id="oA0iBq8XB-oC9CqkHA7l-25" value="" style="endArrow=none;html=1;rounded=0;" edge="1" parent="oA0iBq8XB-oC9CqkHA7l-29">
          <mxGeometry width="50" height="50" relative="1" as="geometry">
            <mxPoint y="10" as="sourcePoint" />
            <mxPoint as="targetPoint" />
          </mxGeometry>
        </mxCell>
        <mxCell id="oA0iBq8XB-oC9CqkHA7l-26" value="" style="endArrow=none;html=1;rounded=0;" edge="1" parent="oA0iBq8XB-oC9CqkHA7l-29">
          <mxGeometry width="50" height="50" relative="1" as="geometry">
            <mxPoint x="170" y="10" as="sourcePoint" />
            <mxPoint x="170" as="targetPoint" />
          </mxGeometry>
        </mxCell>
        <mxCell id="oA0iBq8XB-oC9CqkHA7l-30" value="&lt;b&gt;~6 hours&lt;/b&gt;" style="text;html=1;strokeColor=none;fillColor=none;align=center;verticalAlign=middle;whiteSpace=wrap;rounded=0;" vertex="1" parent="1">
          <mxGeometry x="175" y="-690" width="60" height="30" as="geometry" />
        </mxCell>
        <mxCell id="oA0iBq8XB-oC9CqkHA7l-40" value="" style="group" vertex="1" connectable="0" parent="1">
          <mxGeometry x="460" y="-660" width="170" height="10" as="geometry" />
        </mxCell>
        <mxCell id="oA0iBq8XB-oC9CqkHA7l-41" value="" style="endArrow=none;html=1;rounded=0;" edge="1" parent="oA0iBq8XB-oC9CqkHA7l-40">
          <mxGeometry width="50" height="50" relative="1" as="geometry">
            <mxPoint as="sourcePoint" />
            <mxPoint x="170" as="targetPoint" />
          </mxGeometry>
        </mxCell>
        <mxCell id="oA0iBq8XB-oC9CqkHA7l-42" value="" style="endArrow=none;html=1;rounded=0;" edge="1" parent="oA0iBq8XB-oC9CqkHA7l-40">
          <mxGeometry width="50" height="50" relative="1" as="geometry">
            <mxPoint y="10" as="sourcePoint" />
            <mxPoint as="targetPoint" />
          </mxGeometry>
        </mxCell>
        <mxCell id="oA0iBq8XB-oC9CqkHA7l-43" value="" style="endArrow=none;html=1;rounded=0;" edge="1" parent="oA0iBq8XB-oC9CqkHA7l-40">
          <mxGeometry width="50" height="50" relative="1" as="geometry">
            <mxPoint x="170" y="10" as="sourcePoint" />
            <mxPoint x="170" as="targetPoint" />
          </mxGeometry>
        </mxCell>
        <mxCell id="oA0iBq8XB-oC9CqkHA7l-44" value="&lt;b&gt;~6.5 ---&amp;gt; 30 hours&lt;/b&gt;" style="text;html=1;strokeColor=none;fillColor=none;align=center;verticalAlign=middle;whiteSpace=wrap;rounded=0;" vertex="1" parent="1">
          <mxGeometry x="488.75" y="-690" width="112.5" height="30" as="geometry" />
        </mxCell>
        <mxCell id="oA0iBq8XB-oC9CqkHA7l-54" style="edgeStyle=orthogonalEdgeStyle;rounded=0;orthogonalLoop=1;jettySize=auto;html=1;exitX=0.25;exitY=1;exitDx=0;exitDy=0;entryX=0.5;entryY=0;entryDx=0;entryDy=0;" edge="1" parent="1" source="oA0iBq8XB-oC9CqkHA7l-47" target="oA0iBq8XB-oC9CqkHA7l-50">
          <mxGeometry relative="1" as="geometry" />
        </mxCell>
        <mxCell id="oA0iBq8XB-oC9CqkHA7l-47" value="Identify pathogens" style="rounded=0;whiteSpace=wrap;html=1;" vertex="1" parent="1">
          <mxGeometry x="550" y="-630" width="110" height="40" as="geometry" />
        </mxCell>
        <mxCell id="oA0iBq8XB-oC9CqkHA7l-55" style="edgeStyle=orthogonalEdgeStyle;rounded=0;orthogonalLoop=1;jettySize=auto;html=1;exitX=0.5;exitY=1;exitDx=0;exitDy=0;entryX=0.5;entryY=0;entryDx=0;entryDy=0;" edge="1" parent="1" source="oA0iBq8XB-oC9CqkHA7l-49" target="oA0iBq8XB-oC9CqkHA7l-51">
          <mxGeometry relative="1" as="geometry" />
        </mxCell>
        <mxCell id="oA0iBq8XB-oC9CqkHA7l-49" value="Organism query" style="rounded=0;whiteSpace=wrap;html=1;" vertex="1" parent="1">
          <mxGeometry x="570" y="-515.25" width="110" height="25.25" as="geometry" />
        </mxCell>
        <mxCell id="oA0iBq8XB-oC9CqkHA7l-53" value="No" style="edgeStyle=orthogonalEdgeStyle;rounded=0;orthogonalLoop=1;jettySize=auto;html=1;exitX=1;exitY=0.5;exitDx=0;exitDy=0;entryX=0.5;entryY=0;entryDx=0;entryDy=0;" edge="1" parent="1" source="oA0iBq8XB-oC9CqkHA7l-50" target="oA0iBq8XB-oC9CqkHA7l-49">
          <mxGeometry relative="1" as="geometry" />
        </mxCell>
        <mxCell id="oA0iBq8XB-oC9CqkHA7l-57" value="Yes" style="edgeStyle=orthogonalEdgeStyle;rounded=0;orthogonalLoop=1;jettySize=auto;html=1;exitX=0;exitY=0.5;exitDx=0;exitDy=0;entryX=0;entryY=0.5;entryDx=0;entryDy=0;" edge="1" parent="1" source="oA0iBq8XB-oC9CqkHA7l-50" target="oA0iBq8XB-oC9CqkHA7l-51">
          <mxGeometry relative="1" as="geometry" />
        </mxCell>
        <mxCell id="oA0iBq8XB-oC9CqkHA7l-50" value="Clinical context?" style="rhombus;whiteSpace=wrap;html=1;fontSize=11;" vertex="1" parent="1">
          <mxGeometry x="550" y="-571.75" width="60" height="54" as="geometry" />
        </mxCell>
        <mxCell id="oA0iBq8XB-oC9CqkHA7l-51" value="Report" style="rounded=0;whiteSpace=wrap;html=1;" vertex="1" parent="1">
          <mxGeometry x="570" y="-475.25" width="110" height="25.25" as="geometry" />
        </mxCell>
      </root>
    </mxGraphModel>
  </diagram>
</mxfile>
